Coordinates
version=1
nRows=10
nColumns=46
inDegrees=yes

Units are S.I. units (second, meters, Newtons, ...)
Angles are in degrees.

endheader
time	pelvis_tilt	pelvis_list	pelvis_rotation	pelvis_tx	pelvis_ty	pelvis_tz	bb_angle	bb_tx	bb_ty	bb_tz	hip_flexion_r	hip_adduction_r	hip_rotation_r	knee_angle_r	knee_angle_r_beta	ankle_angle_r	subtalar_angle_r	mtp_angle_r	crank_angle_r	hip_flexion_l	hip_adduction_l	hip_rotation_l	knee_angle_l	knee_angle_l_beta	ankle_angle_l	subtalar_angle_l	mtp_angle_l	crank_angle_l	lumbar_extension	lumbar_bending	lumbar_rotation	arm_flex_r	arm_add_r	arm_rot_r	elbow_flex_r	pro_sup_r	wrist_flex_r	wrist_dev_r	arm_flex_l	arm_add_l	arm_rot_l	elbow_flex_l	pro_sup_l	wrist_flex_l	wrist_dev_l
      2.50000000	    -17.55995558	     -7.35192765	     -8.53453463	      0.19683268	      1.04843463	     -0.25479972	      0.00000000	      0.50000000	      0.00000000	      0.25000000	     75.27605296	      7.17695770	      2.24348744	     81.59336186	      1.42407281	     28.85487632	     -3.26394974	      0.00000000	      0.00000000	     50.24434187	    -13.09445195	      4.01334142	     72.13308199	      1.25895978	    -12.94617552	    -16.00131295	      0.00000000	      0.00000000	    -62.10194618	      8.09095856	      5.18337129	     89.16909580	     -7.27760480	     34.76286387	     62.32216813	     43.93606047	      0.00000000	      0.00000000	     62.96377137	    -30.89895086	      1.91669767	     83.99314334	     46.13972047	      0.00000000	      0.00000000
      2.50500000	    -17.68478455	     -6.98683944	     -8.21028216	      0.19664544	      1.04881379	     -0.25484291	      0.00000000	      0.50000000	      0.00000000	      0.25000000	     74.70814742	      6.73305607	      2.48301686	     80.04136058	      1.39698528	     28.71757076	     -2.99523109	      0.00000000	      0.00000000	     50.66673507	    -12.51648120	      4.11845211	     73.14333501	      1.27659202	    -12.23484123	    -16.08297407	      0.00000000	      0.00000000	    -62.08816441	      8.02652520	      4.58816704	     89.23573380	     -7.36847865	     35.02681929	     62.51771593	     43.80009687	      0.00000000	      0.00000000	     62.87798694	    -31.46407550	      2.46528670	     84.68018151	     46.24511244	      0.00000000	      0.00000000
      2.51000000	    -17.74937301	     -6.89097519	     -7.74016479	      0.19630900	      1.04928117	     -0.25511933	      0.00000000	      0.50000000	      0.00000000	      0.25000000	     74.00485334	      6.24793736	      2.37762827	     78.41658104	      1.36862753	     28.49812266	     -3.22884847	      0.00000000	      0.00000000	     51.15628773	    -12.07432553	      4.49065917	     74.25329477	      1.29596447	    -11.43095191	    -15.82037836	      0.00000000	      0.00000000	    -62.30035411	      8.18715030	      4.45694138	     89.19867076	     -7.59342535	     34.00370073	     63.34790467	     43.83691109	      0.00000000	      0.00000000	     63.20810829	    -31.22405854	      2.59328491	     85.19795509	     46.32118464	      0.00000000	      0.00000000
      2.51500000	    -17.92211116	     -6.65561019	     -7.42785450	      0.19603702	      1.04943064	     -0.25479754	      0.00000000	      0.50000000	      0.00000000	      0.25000000	     73.42952420	      5.94404376	      2.54342875	     76.78903093	      1.34022142	     28.26387404	     -2.74413189	      0.00000000	      0.00000000	     51.73395209	    -11.73790041	      4.58769014	     75.36502528	      1.31536783	    -10.67935520	    -15.65038821	      0.00000000	      0.00000000	    -62.34927220	      8.07918439	      4.20121083	     89.15854477	     -7.91656716	     33.37240635	     64.03507310	     43.89887874	      0.00000000	      0.00000000	     63.37195064	    -31.26706483	      2.69063602	     86.11510276	     46.42815176	      0.00000000	      0.00000000
      2.52000000	    -17.98549116	     -6.23300243	     -6.83264741	      0.19575096	      1.04972493	     -0.25527841	      0.00000000	      0.50000000	      0.00000000	      0.25000000	     72.74879288	      5.15472877	      2.64092916	     75.19757219	      1.31244522	     28.07038886	     -2.69864608	      0.00000000	      0.00000000	     52.22650981	    -10.96724399	      4.63629978	     76.46002634	      1.33447921	     -9.87407973	    -15.65190960	      0.00000000	      0.00000000	    -62.32177306	      8.19695166	      3.60692080	     89.20813607	     -8.23571694	     33.62718669	     64.26271808	     43.88801649	      0.00000000	      0.00000000	     63.91511886	    -31.55842130	      3.75309334	     85.93231521	     46.48457583	      0.00000000	      0.00000000
      2.52500000	    -17.99135145	     -6.18566698	     -6.24705218	      0.19533188	      1.05001150	     -0.25535515	      0.00000000	      0.50000000	      0.00000000	      0.25000000	     71.92116883	      4.67141440	      2.52102661	     73.53190617	      1.28337387	     27.75593296	     -2.79142584	      0.00000000	      0.00000000	     52.75157826	    -10.55306853	      5.03038741	     77.63993805	      1.35507255	     -9.04802084	    -15.35010147	      0.00000000	      0.00000000	    -62.52137477	      8.38986529	      3.49004204	     89.16957223	     -8.58116962	     32.83152541	     65.00123187	     43.95234140	      0.00000000	      0.00000000	     64.31459335	    -31.39835744	      4.09568550	     86.32862932	     46.53419045	      0.00000000	      0.00000000
      2.53000000	    -18.03680687	     -5.84190695	     -5.68063395	      0.19504359	      1.05025791	     -0.25539270	      0.00000000	      0.50000000	      0.00000000	      0.25000000	     71.16436998	      4.03604532	      2.61309351	     71.91428080	      1.25514098	     27.42455479	     -2.83432433	      0.00000000	      0.00000000	     53.26240551	     -9.96434816	      5.07870114	     78.75120537	      1.37446782	     -8.25782835	    -15.10754667	      0.00000000	      0.00000000	    -62.59228440	      8.39453348	      3.03323756	     89.16582459	     -8.97325974	     32.54346510	     65.43923253	     44.01328535	      0.00000000	      0.00000000	     64.86547556	    -31.44592592	      4.66435169	     86.65062781	     46.58726234	      0.00000000	      0.00000000
      2.53500000	    -18.10001109	     -5.49138910	     -5.13463330	      0.19455051	      1.05012399	     -0.25533808	      0.00000000	      0.50000000	      0.00000000	      0.25000000	     70.48266738	      3.40583596	      2.65800876	     70.37848834	      1.22833634	     27.10876199	     -2.82360090	      0.00000000	      0.00000000	     53.86568794	     -9.41797584	      5.08905776	     79.97329085	      1.39579724	     -7.43266232	    -14.78548364	      0.00000000	      0.00000000	    -62.52764208	      8.33082774	      2.52917960	     89.15840508	     -9.56705669	     32.80932143	     65.94371821	     43.95031253	      0.00000000	      0.00000000	     65.44174871	    -31.98796614	      6.12956616	     86.58976232	     46.76763522	      0.00000000	      0.00000000
      2.54000000	    -18.19579876	     -5.06832766	     -4.65567377	      0.19435969	      1.05026729	     -0.25508757	      0.00000000	      0.50000000	      0.00000000	      0.25000000	     69.73298072	      2.85864833	      2.92210162	     68.73862339	      1.19971530	     26.81157008	     -2.71230372	      0.00000000	      0.00000000	     54.44234459	     -8.93506685	      4.89466398	     81.06874542	      1.41491653	     -7.00538284	    -14.92876314	      0.00000000	      0.00000000	    -62.46919405	      8.37691679	      2.01898656	     89.17072024	     -9.70975138	     32.72017428	     66.03544613	     43.94556007	      0.00000000	      0.00000000	     65.57529253	    -31.90299646	      6.22348349	     86.62855347	     46.78574705	      0.00000000	      0.00000000
      2.54500000	    -18.29888155	     -4.80435660	     -3.99146563	      0.19398371	      1.05025311	     -0.25495012	      0.00000000	      0.50000000	      0.00000000	      0.25000000	     69.00264384	      2.14205805	      2.73597919	     67.11948846	      1.17145607	     26.24904512	     -2.93553723	      0.00000000	      0.00000000	     55.13550433	     -8.46063265	      4.98410008	     82.27338391	      1.43594144	     -5.84722244	    -14.10141772	      0.00000000	      0.00000000	    -62.56284969	      8.55582737	      1.76626704	     89.11799284	    -10.24198606	     32.41780100	     67.07708520	     43.96372414	      0.00000000	      0.00000000	     66.32127060	    -32.19067003	      7.04217334	     86.80691862	     46.93167129	      0.00000000	      0.00000000
